<?xml version="1.0" encoding="utf-8"?>
<!-- Generator: Adobe Illustrator 28.0.0, SVG Export Plug-In . SVG Version: 6.00 Build 0)  -->
<svg version="1.1" id="Layer_1" xmlns="http://www.w3.org/2000/svg" xmlns:xlink="http://www.w3.org/1999/xlink" x="0px" y="0px"
	 viewBox="0 0 364.9 151" style="enable-background:new 0 0 364.9 151;" xml:space="preserve">
<style type="text/css">
	.st0{fill:#3C3235;}
</style>
<g>
	<g>
		<path class="st0" d="M309.4,115.9c0-16.2,8.6-26.8,22.9-26.8s22.9,10.6,22.9,26.8c0,16.2-8.6,26.6-22.9,26.6
			S309.4,132.1,309.4,115.9 M332.4,151c19.1,0,32.5-14.3,32.5-35.1s-13.5-35.2-32.5-35.2c-19.1,0-32.4,14.5-32.4,35.2
			S313.3,151,332.4,151 M276.9,149.7h9.2V81.9h-9.2V149.7z M214.9,141.6V90.1h14.3c16.4,0,24.2,11.2,24.2,25.9
			c0,14.6-7.9,25.7-24.2,25.7H214.9z M229.9,81.9h-24.1v67.8h24.1c19.9,0,33.1-13.7,33.1-33.8C263,95.8,249.7,81.9,229.9,81.9
			 M159.9,151c17.4,0,28.6-10.7,28.6-28.8V81.9h-9.2v40.4c0,13.3-7.5,19.9-19.4,19.9c-12,0-19.5-6.7-19.5-19.9V81.9h-9.2v40.3
			C131.2,140.3,142.3,151,159.9,151 M121.4,81.9H60.9v8.3h25.7v59.4h9.2V90.3h25.7V81.9z M28.8,80.7C14.7,80.7,5,88.3,5,100
			c0,8,4.6,14.4,16,17.4l14.3,3.9c7.5,2,10.7,4.9,10.7,10.3c0,7-6.6,11.4-16.5,11.4c-10.4,0-17.1-4.8-18.4-15.1H1.9
			c1.4,15.2,12.5,23,27.3,23c15.1,0,25.9-8.2,25.9-20.3c0-9-5.1-14.8-16.6-17.9L24.7,109c-7.5-2-10.6-4.7-10.6-10.1
			c0-5.9,5.2-10.4,14.2-10.4c8.6,0,14.5,3.9,15.8,12.6h9.2C52.1,88.3,42.9,80.7,28.8,80.7"/>
	</g>
	<path class="st0" d="M0,0v8.3h25.7v59.4h9.2V8.3h25.7V0H0z M114.8,0v28.9H80.4V0h-9.2v67.8h9.2V37.2h34.5v30.6h9.2V0H114.8z
		 M142.2,0v67.8h50.2v-8.3h-41V37.2h32.2v-8.3h-32.2V8.3h41V0H142.2z"/>
</g>
</svg>
