<?xml version="1.0" encoding="utf-8"?>
<!-- Generator: Adobe Illustrator 28.0.0, SVG Export Plug-In . SVG Version: 6.00 Build 0)  -->
<svg version="1.1" id="Layer_1" xmlns="http://www.w3.org/2000/svg" xmlns:xlink="http://www.w3.org/1999/xlink" x="0px" y="0px"
	 viewBox="0 0 277.5 455.8" style="enable-background:new 0 0 277.5 455.8;" xml:space="preserve">
<style type="text/css">
	.st0{fill:#3C3235;}
</style>
<g>
	<path class="st0" d="M157.9,279.4L157.9,279.4c-32-24.5-38-70-14-102c24.5-32,70-38,102-14c32,24.5,38,70,14,102
		C235.4,297.4,189.9,303.4,157.9,279.4"/>
	<path class="st0" d="M135.4,104.4L135.4,104.4c-17-36.5-1.5-79.5,34.5-96.5s80-1.5,97,34.5s1.5,79.5-34.5,96.5
		C195.9,156.4,152.4,140.9,135.4,104.4"/>
	
		<rect x="113.8" y="119.8" transform="matrix(0.7547 -0.6561 0.6561 0.7547 -164.4267 165.2538)" class="st0" width="50" height="365.5"/>
</g>
</svg>
