<?xml version="1.0" encoding="utf-8"?>
<!-- Generator: Adobe Illustrator 28.0.0, SVG Export Plug-In . SVG Version: 6.00 Build 0)  -->
<svg version="1.1" id="Layer_1" xmlns="http://www.w3.org/2000/svg" xmlns:xlink="http://www.w3.org/1999/xlink" x="0px" y="0px"
	 viewBox="0 0 387.9 319.7" style="enable-background:new 0 0 387.9 319.7;" xml:space="preserve">
<style type="text/css">
	.st0{fill:#3C3235;}
</style>
<g>
	<path class="st0" d="M41,44.2L41,44.2c36-17.5,79.5-2.5,97,34c17.5,36,2.5,79.5-34,97c-36,17.5-79.5,2.5-97-34
		C-10,105.2,5,61.7,41,44.2"/>
	<path class="st0" d="M123.5,174.7L123.5,174.7c40,1.5,71.5,35,70,75s-35,71.5-75,70s-71.5-35-70-75
		C49.5,204.7,83,173.7,123.5,174.7"/>
	<rect x="220" y="-32" transform="matrix(0.7314 -0.682 0.682 0.7314 -36.9794 207.5448)" class="st0" width="50" height="365.5"/>
</g>
</svg>
