<?xml version="1.0" encoding="utf-8"?>
<!-- Generator: Adobe Illustrator 28.0.0, SVG Export Plug-In . SVG Version: 6.00 Build 0)  -->
<svg version="1.1" id="Layer_1" xmlns="http://www.w3.org/2000/svg" xmlns:xlink="http://www.w3.org/1999/xlink" x="0px" y="0px"
	 viewBox="0 0 415.3 423.2" style="enable-background:new 0 0 415.3 423.2;" xml:space="preserve">
<style type="text/css">
	.st0{fill:#3C3235;}
</style>
<g>
	<path class="st0" d="M0.1,182.2L0.1,182.2c-2.5-40,28-74.5,68-77s74.5,28,77,68s-28,74.5-68,77S2.6,222.2,0.1,182.2"/>
	<path class="st0" d="M107.1,28.7L107.1,28.7c24.5-32,70-38,102-14c32,24.5,38,70,14,102c-24.5,32-70,38-102,14
		C89.1,106.2,82.6,60.2,107.1,28.7"/>
	
		<rect x="210.2" y="153.5" transform="matrix(0.3472 -0.9378 0.9378 0.3472 -161.823 440.1272)" class="st0" width="50" height="365.5"/>
</g>
</svg>
